<svg xmlns="http://www.w3.org/2000/svg"><symbol id="toonie" viewBox="0 0 19.7 19.7"><circle cx="9.8" cy="9.8" r="9.3" fill="#4da500" stroke="#8e0909" stroke-miterlimit="10"/><circle cx="9.8" cy="9.8" r="7.7" fill="#fff"/><path fill="#a5d357" d="M5.5 16.2s1-1.6 2-1.7-1.6.3-1.1-1.1a.5.5 0 0 1-.1-.7c-.1-.1-.2-.3 0-.4s-.1-.4-.4-.5-.5 0-.4-.3l.6-.6s.3-.4.2-.6a2.4 2.4 0 0 1 .1-1.4s-.9 0-.7-.5-.4-1 .4-1.2a.9.9 0 0 1 1.1-.9c.4-.3.9-1.1 1.9-.5s1.8-.2 2 .2 1.7.6 1 1.6 1.3.7.8 1.2.5.6-.1 1a.6.6 0 0 1 0 1c0 .2.1 1.1-.5 1s-.3.8-.7.6.2.7-.4.9-.2.9 0 1.1 2.9.3 3.3 1.6a7.7 7.7 0 0 1-9 .2z"/></symbol><symbol id="shiptruck" viewBox="0 0 16 16"><path fill="#fff" stroke="#000" stroke-miterlimit="10" stroke-width=".54" d="M5 10.8h6.6V3.9H.3v6.9H3"/><path fill="none" stroke="#000" stroke-miterlimit="10" stroke-width=".54" d="M12.5 10.8h-.7m0-4.7c2.3-.2 2.3 2.5 2.3 2.5s1.6 0 1.6 1.4v.8h-1.2"/><circle cx="4" cy="11.2" r="1.1" fill="none" stroke="#000" stroke-miterlimit="10" stroke-width=".4"/><circle cx="13.5" cy="11.2" r="1.1" fill="none" stroke="#000" stroke-miterlimit="10" stroke-width=".4"/></symbol><symbol id="cart" viewBox="0 0 16 16"><ellipse cx="3.5" cy="13.3" rx="1" ry="1.1"/><ellipse cx="8.3" cy="13.3" rx="1" ry="1.1"/><path d="M6.5 10.2l-.6.7-1.4 1.7-.6-.7 1.4-1.7.6-.6.6.6z"/><path d="M7.8 11.9l-.6.7-1.3-1.7-.6-.7.6-.6 1.9 2.3z"/><path fill="#fff" d="M1.6 10.5L.4 4l11.3.1-1.1 6.4h-9z"/><path d="M.7 4.3h10.6l-.9 5.8H1.8L.7 4.3M0 3.7l1.4 7.1h9.5l1.1-7z"/><path d="M13.8 2.6H13l-1.1 1.7-.3-.4 1.1-1.6.6-.7.5 1z"/><path d="M16 2.6h-2.8l.1-1H16v1z"/></symbol><symbol id="home" viewBox="0 0 29.1 31.9"><path fill="#fff" d="M4.9 11.9h19.3v19.42H4.9z"/><path d="M23.5 12.5v18.1H5.6V12.5h17.9m1.4-1.3H4.3v20.7h20.6V11.2z"/><path fill="#fff" d="M14.4.9l13.1 13-25.9.2L14.4.9z"/><path d="M14.4 1.9l11.5 11.3-22.7.3L14.4 1.9m0-1.9L0 14.8l29.1-.3L14.4 0z"/></symbol><symbol id="profile" viewBox="0 0 11.9 15.4"><path fill="#fff" stroke="#000" stroke-miterlimit="10" stroke-width=".59" d="M11.6 15.1H.3c.5-5 2.8-8.8 5.7-8.8s5.2 3.8 5.6 8.8z"/><path fill="none" stroke="#000" stroke-miterlimit="10" stroke-width=".59" d="M11.6 15.1H.3"/><ellipse cx="5.9" cy="4.1" fill="#fff" stroke="#000" stroke-miterlimit="10" stroke-width=".59" rx="3.6" ry="3.8"/></symbol><symbol id="ezmoney" viewBox="0 0 30.4 14.8"><path fill="#fff" stroke="#000" stroke-miterlimit="10" stroke-width=".43" d="M.2.2h30v14.41H.2z"/><ellipse cx="14.9" cy="7.2" fill="#fff" stroke="#000" stroke-miterlimit="10" stroke-width=".21" rx="4.9" ry="5.1"/><path d="M12.8 5.5h1.9v.8h-.9v.4h.9v.8h-.9v.4h.9v.8h-1.9zm3.1.8H15l.3-.8h2l-1 2.4h1l-.3.8h-2.2z"/><path fill="#fff" stroke="#000" stroke-miterlimit="10" stroke-width=".21" d="M6.3 10.1H2.2C2.4 8.3 3.2 7 4.3 7s1.9 1.3 2 3.1z"/><path fill="none" stroke="#000" stroke-miterlimit="10" stroke-width=".21" d="M6.3 10.1H2.2"/><ellipse cx="4.3" cy="6.2" fill="#fff" stroke="#000" stroke-miterlimit="10" stroke-width=".21" rx="1.3" ry="1.4"/><path fill="#fff" stroke="#000" stroke-miterlimit="10" stroke-width=".21" d="M27.1 10.1h-4.2C23.1 8.3 24 7 25 7s1.9 1.3 2.1 3.1z"/><path fill="none" stroke="#000" stroke-miterlimit="10" stroke-width=".21" d="M27.1 10.1h-4.2"/><ellipse cx="25" cy="6.2" fill="#fff" stroke="#000" stroke-miterlimit="10" stroke-width=".21" rx="1.3" ry="1.4"/></symbol><symbol id="shipping" viewBox="0 0 15.6 15"><path fill="#fff" d="M2.5.3H10v7.65H2.5z"/><path d="M9.7.6v7H2.8v-7h6.9m.6-.6h-8v8.2h8V0z"/><path fill="#fff" d="M.3 2h7.5v7.65H.3z"/><path d="M7.5 2.3v7.1H.6V2.3h6.9m.6-.6H0V10h8.1V1.7z"/><path fill="#fff" stroke="#000" stroke-miterlimit="10" stroke-width=".58" d="M10.1 8L7.9 9.7M10 .4L7.8 2.1M2.4.2L.2 2"/><path fill="#fff" d="M9.5 6.9v.9l-1.1.9v-2l1.1.2z"/><path fill="#fff" stroke="#fff" stroke-miterlimit="10" stroke-width=".45" d="M2.4.9l.1-.1H3v.7h-.6V.9z"/><path fill="#fff" stroke="#000" stroke-miterlimit="14" stroke-width=".29" d="M10.5 14.7l-4.8-3.1-.2-6.2 4.8 2.7.2 6.6zm.3 0l4.6-3.4.1-6.1-5 3 .3 6.5z"/><path fill="#fff" stroke="#000" stroke-miterlimit="14" stroke-width=".25" d="M10.6 2.5L15.4 5l-5 3-4.8-2.8 5-2.7z"/></symbol><symbol id="money" viewBox="0 0 16 12"><path fill="#28f731" stroke="#000" stroke-miterlimit="10" stroke-width=".25" d="M7.3 7.9l-1.2-.2V5.6c5 .6-2.9-1.4 1.2-4.5V.2H9v.7h.7v2c-3.9-.1 4 1.6-.7 4.9v.8H7.3zM8 1.8c-3.6.5 4.9 4.9-1.1 4.8v.3H8V8h.2V6.9c4-.6-3.9-4.6.6-4.8v-.3h-.6v-1H8z"/><path fill="#28f731" stroke="#000" stroke-miterlimit="10" stroke-width=".25" d="M3.8 11.1l-1.1.5-.9-1.7c4.5-2.6-3.1.5-1-4.6l-.4-.8 1.5-1 .3.6.6-.4.9 1.6C.3 7.6 7.8 4.2 5.2 9.9l.3.7-1.4 1zm-2-5.6c-2.9 2.6 6.3 1 1.1 4.7l.2.2.9-.6.4.9.3-.2-.5-.8c3.2-3-5.4-1.6-1.6-4.5v-.3l-.6.4-.5-.9-.2.2zm9.3 4.7L10 9.5l.7-1.9C15 10.4 8.6 4.9 13.3 4l.3-.8 1.5.8-.2.6.7.4-.7 1.8c-3.5-2 3.2 3.2-2.2 4.1l-.3.8-1.6-.8zM13.7 5c-3.5-1.1 3 6.7-2.5 3.9v.2l.9.6-.3.9.2.2.4-1c3.9 1.2-2.1-6 2.1-4.1v-.3l-.6-.3.4-.9h-.2z"/></symbol></svg>