<svg xmlns="http://www.w3.org/2000/svg"><symbol id="shiptruck" viewBox="0 0 16 16"><path fill="#fff" stroke="#000" stroke-miterlimit="10" stroke-width=".54" d="M5 10.8h6.6V3.9H.3v6.9H3"/><path fill="none" stroke="#000" stroke-miterlimit="10" stroke-width=".54" d="M12.5 10.8h-.7m0-4.7c2.3-.2 2.3 2.5 2.3 2.5s1.6 0 1.6 1.4v.8h-1.2"/><circle cx="4" cy="11.2" r="1.1" fill="none" stroke="#000" stroke-miterlimit="10" stroke-width=".4"/><circle cx="13.5" cy="11.2" r="1.1" fill="none" stroke="#000" stroke-miterlimit="10" stroke-width=".4"/></symbol><symbol id="profile" viewBox="0 0 11.9 15.4"><path fill="#fff" stroke="#000" stroke-miterlimit="10" stroke-width=".59" d="M11.6 15.1H.3c.5-5 2.8-8.8 5.7-8.8s5.2 3.8 5.6 8.8z"/><path fill="none" stroke="#000" stroke-miterlimit="10" stroke-width=".59" d="M11.6 15.1H.3"/><ellipse cx="5.9" cy="4.1" fill="#fff" stroke="#000" stroke-miterlimit="10" stroke-width=".59" rx="3.6" ry="3.8"/></symbol><symbol id="ezmoney" viewBox="0 0 30.4 14.8"><path fill="#fff" stroke="#000" stroke-miterlimit="10" stroke-width=".43" d="M.2.2h30v14.41H.2z"/><ellipse cx="14.9" cy="7.2" fill="#fff" stroke="#000" stroke-miterlimit="10" stroke-width=".21" rx="4.9" ry="5.1"/><path d="M12.8 5.5h1.9v.8h-.9v.4h.9v.8h-.9v.4h.9v.8h-1.9zm1.6 2.8h-1v-1h.9V7h-.9V6h-.1v2.3zm1.5-2H15l.3-.8h2l-1 2.4h1l-.3.8h-2.2zm.8 2h-1.1L16.7 6h-.2l-1.1 2.3z"/><path fill="#fff" stroke="#000" stroke-miterlimit="10" stroke-width=".21" d="M6.3 10.1H2.2C2.4 8.3 3.2 7 4.3 7s1.9 1.3 2 3.1z"/><path fill="none" stroke="#000" stroke-miterlimit="10" stroke-width=".21" d="M6.3 10.1H2.2"/><ellipse cx="4.3" cy="6.2" fill="#fff" stroke="#000" stroke-miterlimit="10" stroke-width=".21" rx="1.3" ry="1.4"/><path fill="#fff" stroke="#000" stroke-miterlimit="10" stroke-width=".21" d="M27.1 10.1h-4.2C23.1 8.3 24 7 25 7s1.9 1.3 2.1 3.1z"/><path fill="none" stroke="#000" stroke-miterlimit="10" stroke-width=".21" d="M27.1 10.1h-4.2"/><ellipse cx="25" cy="6.2" fill="#fff" stroke="#000" stroke-miterlimit="10" stroke-width=".21" rx="1.3" ry="1.4"/></symbol><symbol id="shipping" viewBox="0 0 15.6 15"><path fill="#fff" d="M2.5.3H10v7.65H2.5z"/><path d="M9.7.6v7H2.8v-7h6.9m.6-.6h-8v8.2h8V0z"/><path fill="#fff" d="M.3 2h7.5v7.65H.3z"/><path d="M7.5 2.3v7.1H.6V2.3h6.9m.6-.6H0V10h8.1V1.7z"/><path fill="none" stroke="#000" stroke-miterlimit="10" stroke-width=".58" d="M10.1 8L7.9 9.7M10 .4L7.8 2.1M2.4.2L.2 2"/><path fill="#fff" stroke="#fff" stroke-miterlimit="10" stroke-width=".58" d="M9.5 6.9v.9l-1.1.9v-2l1.1.2z"/><path fill="#fff" stroke="#fff" stroke-miterlimit="10" stroke-width=".45" d="M2.4.9l.1-.1H3v.7h-.7l.1-.6z"/><path fill="#fff" stroke="#050505" stroke-miterlimit="14" stroke-width=".29" d="M10.5 14.7l-4.8-3.1-.2-6.2 4.8 2.7.2 6.6zm.3 0l4.6-3.4.1-6.1-5 3 .3 6.5z"/><path fill="#fff" stroke="#050505" stroke-miterlimit="14" stroke-width=".23" d="M10.6 2.5L15.4 5l-5 3-4.8-2.8 5-2.7z"/></symbol><symbol id="money" viewBox="0 0 16 12"><path d="M7.3 8H6V5.7h1.6c.3 0 .5-.1.5-.3l-.2-.3-.4-.1-.5-.4-.4-.5-.4-.6a1.9 1.9 0 0 1-.2-.8 1.5 1.5 0 0 1 .4-1.1 1.6 1.6 0 0 1 .9-.7V0h1.8v.7h.7v2H8.7c0 .1 0 .1.1.2l.4.3c.1.1.3.2.4.4a1.2 1.2 0 0 1 .5.5c.1.2.3.4.3.6a2.4 2.4 0 0 1 .2.8 1.8 1.8 0 0 1-.4 1.3 1.5 1.5 0 0 1-1.1.8v.9H7.3zm.8-6.3l-.7.3a.9.9 0 0 0-.3.7.7.7 0 0 0 .2.6l.3.5.6.5.5.5.4.4a1.3 1.3 0 0 1 .1.6.8.8 0 0 1-.3.7 1.5 1.5 0 0 1-1 .3h-1V7h1.2v1h.2V7l.5-.2.4-.2a.8.8 0 0 0 .2-.4.9.9 0 0 0 .1-.5 1.3 1.3 0 0 0-.1-.6L9 4.7l-.6-.5c-.1-.2-.3-.3-.5-.5l-.4-.5a.7.7 0 0 1-.1-.5.8.8 0 0 1 .2-.5 1.1 1.1 0 0 1 .8-.2h.5v-.3h-.6V.6h-.2zm-4.5 9.7l-.4.2-.4.2h-.3L1.6 10H2l1-.6c.3-.2.3-.4.2-.6s-.1-.1-.2-.1H1.3l-.6-.5c-.2-.1-.3-.3-.5-.6A2.5 2.5 0 0 1 0 6.4a2.7 2.7 0 0 1 .5-1.1l-.4-.8 1.5-1.1.4.6h.7l.8 1.6h-.3c-.1.1-.2.1-.2.2h-.3V6h1.7l.6.4a1 1 0 0 1 .5.6 2.8 2.8 0 0 1 .3 1.3 3.7 3.7 0 0 1-.7 1.4l.4.7L4 12zM1.5 5.5a2.5 2.5 0 0 0-.4.7.8.8 0 0 0 .1.8l.3.4.6.2h1.3l.6.2.3.3a1 1 0 0 1 .1.9 2.7 2.7 0 0 1-.7.8l-.4.2c-.1.1-.1.2-.2.2h-.3v.2h.6l.3-.2h.1l.4.9.3-.2L4 10l.3-.4.2-.4a1.1 1.1 0 0 0 .1-.5 4.3 4.3 0 0 0-.1-.5l-.4-.4-.6-.2H2.3l-.5-.2c-.2 0-.3-.1-.4-.3a.6.6 0 0 1 0-.6 1 1 0 0 1 .5-.7h.5V5H2l-.2.2h-.1l-.4-.9-.2.2zm9.8 5l-.5-.3-.3-.2v-.2h-.2l.7-1.9c.1 0 .1.1.2.2h.2l.9.6c.4.2.5.1.6-.1s0-.2 0-.3l-.3-.5-.3-.6-.3-.6c-.1-.3-.1-.5-.2-.8A3.1 3.1 0 0 1 12 5a1.3 1.3 0 0 1 .7-.9 1.6 1.6 0 0 1 1-.2l.3-.8 1.7.8-.3.7.3.2h.2l.2.2-.6 1.8H15l-.2-.2h-.6v.3c0 .1.1.2.2.4l.3.6.3.7c0 .2.1.5.1.7a2.2 2.2 0 0 1-.1.8 2.1 2.1 0 0 1-.8 1 1.4 1.4 0 0 1-1.3.2l-.3.8-1.6-.8zM14.1 5h-.8a1.2 1.2 0 0 0-.5.5v.6a1.9 1.9 0 0 0 .2.7l.3.7.4.6a1.4 1.4 0 0 0 .2.7.7.7 0 0 1-.1.5 1 1 0 0 1-.5.6 2 2 0 0 1-1-.2l-.3-.2-.3-.2h-.3v.3h.6l.3.2h.1l-.3.9.2.2.4-1h.9l.3-.2.3-.4a.8.8 0 0 0 0-.7A1.4 1.4 0 0 0 14 8l-.3-.7-.3-.7a1.4 1.4 0 0 1-.2-.6.4.4 0 0 1 0-.5c.1-.3.2-.4.4-.4a1.2 1.2 0 0 1 .8.1h.3a.1.1 0 0 1 .1.1h.1v.2h-.2a.1.1 0 0 0-.1-.1h-.3l.4-.9-.3-.5z"/></symbol><symbol id="cart" viewBox="0 0 16 16"><ellipse cx="3.5" cy="14.6" rx="1" ry="1.4"/><ellipse cx="8.3" cy="14.6" rx="1" ry="1.4"/><path d="M6.5 10.8l-.6.9-1.4 2-.6-.9 1.4-2 .6-.9.6.9z"/><path d="M7.8 12.8l-.6.9-1.3-2-.6-.9.6-.9 1.9 2.9z"/><path fill="#fff" d="M1.6 11.2L.4 3l11.3.1-1.1 8.1h-9z"/><path d="M.8 3.3l10.5.2-1 7.4H1.9L.8 3.3M0 2.6l1.4 8.9h9.5L12 2.8 0 2.6z"/><path d="M13.8 1.3l-.8-.1-1.1 2.1-.3-.4 1.1-2 .6-.9.5 1.3z"/><path d="M16 1.3h-.9l-1.9-.1.1-1.2h1.9l.8.1v1.2z"/></symbol><symbol id="home" viewBox="0 0 29.1 31.9"><path fill="#fff" d="M4.9 11.9h19.3v19.42H4.9z"/><path d="M23.5 12.5v18.1H5.6V12.5h17.9m1.4-1.3H4.3v20.7h20.6V11.2z"/><path fill="#fff" d="M14.4.9l13.1 13-25.9.2L14.4.9z"/><path d="M14.4 1.9l11.5 11.3-22.7.3L14.4 1.9m0-1.9L0 14.8l29.1-.3L14.4 0z"/></symbol></svg>