<?xml version="1.0" encoding="utf-8"?>
<!-- Generator: Adobe Illustrator 24.0.1, SVG Export Plug-In . SVG Version: 6.00 Build 0)  -->
<svg version="1.1" id="Layer_1" xmlns="http://www.w3.org/2000/svg" xmlns:xlink="http://www.w3.org/1999/xlink" x="0px" y="0px"
	 viewBox="0 0 16 16" style="enable-background:new 0 0 16 16;" xml:space="preserve">
<style type="text/css">
	.st0{fill:#FFFFFF;}
</style>
<ellipse cx="8" cy="8" rx="8" ry="7.9"/>
<circle class="st0" cx="8.2" cy="3.3" r="2.4"/>
<path class="st0" d="M4.5,4.2c0,0,3.4,4.3,7.5,0c0,2.9,0,4.4,0,4.4s-3.5-2.2-7.5,0C4.5,6.4,4.5,4.2,4.5,4.2z"/>
<path class="st0" d="M7,7.6c0,0,0.3,4-1.3,7.4H10c0,0-1.6-5-1.1-7.4S7,7.6,7,7.6z"/>
<polyline class="st0" points="12,8.6 12.6,8.6 12.6,4.2 12,4.2 "/>
<polyline class="st0" points="4.5,4.2 3.8,4.2 3.8,8.6 4.5,8.6 "/>
</svg>
