<?xml version="1.0" encoding="utf-8"?>
<!-- Generator: Adobe Illustrator 24.0.1, SVG Export Plug-In . SVG Version: 6.00 Build 0)  -->
<svg version="1.1" id="Layer_1" xmlns="http://www.w3.org/2000/svg" xmlns:xlink="http://www.w3.org/1999/xlink" x="0px" y="0px"
	 viewBox="0 0 32 32" style="enable-background:new 0 0 32 32;" xml:space="preserve">
<style type="text/css">
	.st0{fill:none;stroke:#FFFFFF;stroke-width:0.6223;stroke-miterlimit:10;}
	.st1{fill:none;stroke:#FFFFFF;stroke-width:7.699268e-02;stroke-miterlimit:10;}
</style>
<g id="XMLID_2_">
	<g>
		<path d="M-173.8-15.3c0.2,70.9-53,120.6-113.9,126c-76,6.7-141.8-47.6-141.8-125c0-36.5,16.2-66.2,33.6-84.9
			c17.8-19.1,44.6-35.7,80.3-39.2c46.4-4.6,83.5,12.7,107.3,38.3C-190.7-81.4-173.9-49.3-173.8-15.3z M-224.2,81.8
			c32.8-25.8,64-81.3,39.2-141.9c-17.4-42.5-63.4-80.6-123.2-76.5c-31.8,2.2-54.3,12-72.8,27.1c-20.7,16.9-32.1,32.9-40.1,58.8
			c-18.6,60.4,10.3,112.3,48.5,138.1C-327.6,117.8-264.5,113.5-224.2,81.8z"/>
		<path d="M-210.2-93.7c20.1,22.1,33.4,50.6,30.8,88.7c-3.9,58.2-51.3,106.6-112,111c-46.6,3.4-83.2-17.3-102.6-42.9
			c39.2,0,78.4,0,117.6,0c2.4-0.7,2.4-3.8,3.7-5.6c2.1,0.4,0,5,1.9,5.6c10.9-0.6,24.2,1.2,33.6-0.9c-2.1-10.1-3.2-21.5-2.8-33.6
			c5.5-0.2,6.1,4.5,12.1,3.7c2.2-3.4,0.3-10.9,0.9-15.9c-0.5-2.2-11,3.8-6.5,0.9c0-0.9,1.1-0.7,1.9-0.9c6.1-8.1,1.2-17.4-6.5-17.7
			c-10.1-0.4-15,14.5-3.7,18.7c-3.5,2.5-7-3-10.3-3.7c-0.3,5.6,0.7,12.6-0.9,16.8c3.5,3,3.8-3.7,7.5-0.9
			c-3.1,13.3-38.8,8.9-40.1-4.7c-1.2-12.3,16.4-36.7,24.3-42c10.7-7.2,26.6-2.2,18.7,14.9c5,0,10,0,14.9,0
			c12.6-26.2-18.7-41.5-37.3-28c12.1-18.4,31.5-37.6,45.7-56.9c3.4,0,6.8,0,10.3,0C-207.6-87.6-210.3-91.6-210.2-93.7z M-219.5,8
			c10.1-6.5,38.6-13.2,38.3-28c-0.4-17.2-44.1-23-58.8-23.3c16.5,3.5,55.1,6.5,56,23.3C-183.1-3-209.4-1.4-219.5,8z"/>
		<path d="M-214.8-97.4c-11.8,0-23.6,0-35.5,0c-5.9,3.1-7.1,11-13.1,14c-1.2-12.3-3.7-22.6-13.1-27.1c-20.8-9.8-60.1,8.7-53.2,28.9
			c4.5,13.3,34.5,2.9,33.6,23.3c-0.8,19.4-45.6,24.4-41.1-4.7c-6.8,0-13.7,0-20.5,0c0.9,13.4,2.3,26.3,14,28.9
			c-5.3,2.2-14.6,0.3-21.5,0.9c-4.1,3.7-4.7,10.8-7.5,15.9c15.9,0.6,28.9-1.6,44.8-0.9c1,4.1-4,6.5-6.5,9.3
			c-19.6,21.9-42.3,47.1-62.5,69.1c-17.2-20.6-29.9-45.5-27.1-84.9c4.8-66.7,64.5-114.2,129.7-110.1
			C-259.4-132.6-233.3-118.2-214.8-97.4z M-395-30.2c8.6-4.5,18.8-5.4,25.2-10.3C-390.9-40.3-420.3-24.9-422-5
			c-1.9,20.8,32.8,26.6,50.4,28c-17.4-4.4-44.4-5.5-47.6-21.5C-422.4-14.3-404.5-25.2-395-30.2z"/>
		<path d="M-308.2-89c4.4-16.4,32.2-9.6,26.1,11.2C-285.2-87.1-303-81.8-308.2-89z"/>
		<path d="M-302.6,42.6c-7.8,0-15.6,0-23.3,0c3.5-9.2,12.6-12.9,17.7-20.5C-305,27.6-305.8,37.1-302.6,42.6z"/>
	</g>
	<g>
		<path class="st0" d="M-308.2-136.6c59.8-4.1,105.8,34,123.2,76.5c24.8,60.6-6.4,116.1-39.2,141.9c-40.3,31.8-103.4,36-148.4,5.6
			c-38.2-25.8-67.1-77.8-48.5-138.1c8-25.9,19.4-41.9,40.1-58.8C-362.5-124.6-340-134.4-308.2-136.6z"/>
	</g>
</g>
<g id="XMLID_1_">
	<g>
		<path d="M27.4,6.2c2.5,2.7,4.2,6.2,3.8,10.9c-0.5,7.1-6.4,13.1-14,13.6c-5.8,0.4-10.4-2.1-12.8-5.3c4.9,0,9.8,0,14.7,0
			c0.3-0.1,0.3-0.5,0.5-0.7c0.3,0,0,0.6,0.2,0.7c1.4-0.1,3,0.1,4.2-0.1c-0.3-1.2-0.4-2.6-0.3-4.1c0.7,0,0.8,0.6,1.5,0.5
			c0.3-0.4,0-1.3,0.1-1.9c-0.1-0.3-1.4,0.5-0.8,0.1c0-0.1,0.1-0.1,0.2-0.1c0.8-1,0.2-2.1-0.8-2.2c-1.3,0-1.9,1.8-0.5,2.3
			c-0.4,0.3-0.9-0.4-1.3-0.5c0,0.7,0.1,1.5-0.1,2.1c0.4,0.4,0.5-0.5,0.9-0.1c-0.4,1.6-4.8,1.1-5-0.6c-0.2-1.5,2-4.5,3-5.1
			c1.3-0.9,3.3-0.3,2.3,1.8c0.6,0,1.2,0,1.9,0c1.6-3.2-2.3-5.1-4.7-3.4c1.5-2.3,3.9-4.6,5.7-7c0.4,0,0.9,0,1.3,0
			C27.7,7,27.4,6.5,27.4,6.2z M26.3,18.7c1.3-0.8,4.8-1.6,4.8-3.4c-0.1-2.1-5.5-2.8-7.3-2.9c2.1,0.4,6.9,0.8,7,2.9
			C30.8,17.4,27.5,17.6,26.3,18.7z"/>
		<path d="M15.2,6.8c0.6-2,4-1.2,3.3,1.4C18.1,7,15.8,7.7,15.2,6.8z"/>
		<path d="M15.9,22.9c-1,0-1.9,0-2.9,0c0.4-1.1,1.6-1.6,2.2-2.5C15.6,21.1,15.5,22.3,15.9,22.9z"/>
		<path d="M0.7,14.7c0.6-8.2,8.1-14,16.2-13.5c4.3,0.3,7.6,2,9.9,4.6c-1.5,0-3,0-4.4,0c-0.7,0.4-0.9,1.3-1.6,1.7
			c-0.1-1.5-0.5-2.8-1.6-3.3c-2.6-1.2-7.5,1.1-6.6,3.5c0.6,1.6,4.3,0.4,4.2,2.9c-0.1,2.4-5.7,3-5.1-0.6c-0.9,0-1.7,0-2.6,0
			c0.1,1.6,0.3,3.2,1.7,3.5c-0.7,0.3-1.8,0-2.7,0.1c-0.5,0.5-0.6,1.3-0.9,1.9c2,0.1,3.6-0.2,5.6-0.1c0.1,0.5-0.5,0.8-0.8,1.1
			c-2.5,2.7-5.3,5.8-7.8,8.5C2,22.6,0.4,19.5,0.7,14.7z M4.3,14c1.1-0.6,2.3-0.7,3.1-1.3c-2.6,0-6.3,1.9-6.5,4.3
			c-0.2,2.5,4.1,3.3,6.3,3.4c-2.2-0.5-5.5-0.7-5.9-2.6C0.9,16,3.2,14.6,4.3,14z"/>
		<path d="M6.1,4.3c-2.6,2.1-4,4-5,7.2c-2.3,7.4,1.3,13.8,6.1,16.9c5.6,3.7,13.5,3.2,18.5-0.7c4.1-3.2,8-10,4.9-17.4
			C28.4,5.1,22.7,0.5,15.2,1C11.2,1.2,8.4,2.4,6.1,4.3z M0,16c0-4.5,2-8.1,4.2-10.4c2.2-2.3,5.6-4.4,10-4.8
			c5.8-0.6,10.4,1.6,13.4,4.7c2.2,2.3,4.3,6.2,4.3,10.4c0,8.7-6.6,14.8-14.2,15.4C8.3,32.1,0,25.5,0,16z"/>
	</g>
	<g>
		<path class="st1" d="M15.2,1c7.5-0.5,13.2,4.2,15.4,9.4c3.1,7.4-0.8,14.2-4.9,17.4c-5,3.9-12.9,4.4-18.5,0.7
			c-4.8-3.2-8.4-9.5-6.1-16.9c1-3.2,2.4-5.1,5-7.2C8.4,2.4,11.2,1.2,15.2,1z"/>
	</g>
</g>
</svg>
