<?xml version="1.0" encoding="utf-8"?>
<!-- Generator: Adobe Illustrator 24.0.1, SVG Export Plug-In . SVG Version: 6.00 Build 0)  -->
<svg version="1.1" id="Layer_1" xmlns="http://www.w3.org/2000/svg" xmlns:xlink="http://www.w3.org/1999/xlink" x="0px" y="0px"
	 viewBox="0 0 205.5 201.3" style="enable-background:new 0 0 205.5 201.3;" xml:space="preserve">
<style type="text/css">
	.st0{fill:none;stroke:#FFFFFF;stroke-width:0.5;stroke-miterlimit:10;}
</style>
<g id="XMLID_2_">
	<g>
		<path d="M205.5,99.6c0.2,57-42.6,96.9-91.5,101.2C52.9,206.2,0,162.6,0,100.3C0,71,13,47.1,27,32.1C41.3,16.7,62.9,3.4,91.5,0.6
			c37.3-3.7,67.1,10.2,86.2,30.7C191.9,46.5,205.4,72.2,205.5,99.6z M165,177.6c26.3-20.7,51.4-65.3,31.5-114
			c-14-34.2-50.9-64.8-99-61.5C71.9,3.8,53.8,11.7,39,23.8C22.4,37.4,13.2,50.2,6.8,71.1c-14.9,48.5,8.3,90.2,39,111
			C81.9,206.5,132.6,203.1,165,177.6z"/>
		<path d="M176.2,36.6c16.1,17.8,26.8,40.6,24.7,71.2c-3.1,46.8-41.2,85.7-90,89.2c-37.4,2.7-66.8-13.9-82.5-34.5
			c31.5,0,63,0,94.5,0c1.9-0.6,1.9-3.1,3-4.5c1.7,0.3,0,4,1.5,4.5c8.8-0.5,19.5,0.9,27-0.8c-1.7-8.1-2.6-17.3-2.2-27
			c4.4-0.1,4.9,3.6,9.8,3c1.7-2.8,0.3-8.7,0.8-12.8c-0.4-1.8-8.9,3.1-5.2,0.8c0-0.7,0.9-0.6,1.5-0.8c4.9-6.5,1-14-5.2-14.2
			c-8.1-0.3-12.1,11.7-3,15c-2.8,2-5.6-2.4-8.2-3c-0.2,4.5,0.6,10.1-0.8,13.5c2.8,2.4,3.1-3,6-0.8c-2.5,10.7-31.2,7.2-32.2-3.8
			c-1-9.9,13.2-29.5,19.5-33.7c8.6-5.8,21.4-1.8,15,12c4,0,8,0,12,0c10.2-21-15.1-33.3-30-22.5c9.7-14.8,25.3-30.2,36.8-45.8
			c2.8,0,5.5,0,8.2,0C178.3,41.4,176.2,38.2,176.2,36.6z M168.7,118.3c8.1-5.2,31.1-10.6,30.7-22.5C199.1,82,164,77.3,152.2,77.1
			c13.2,2.8,44.3,5.2,45,18.8C197.9,109.5,176.9,110.8,168.7,118.3z"/>
		<path d="M172.5,33.6c-9.5,0-19,0-28.5,0c-4.7,2.5-5.7,8.8-10.5,11.2c-0.9-9.9-2.9-18.2-10.5-21.7c-16.7-7.9-48.3,7-42.7,23.2
			c3.6,10.7,27.7,2.3,27,18.8c-0.7,15.6-36.6,19.6-33-3.8c-5.5,0-11,0-16.5,0c0.7,10.8,1.8,21.2,11.2,23.3
			c-4.3,1.7-11.7,0.2-17.2,0.8c-3.3,3-3.8,8.7-6,12.8c12.8,0.5,23.2-1.3,36-0.8c0.8,3.3-3.2,5.2-5.2,7.5
			c-15.8,17.6-34,37.9-50.2,55.5c-13.9-16.5-24-36.6-21.8-68.2C8.3,38.5,56.4,0.3,108.7,3.6C136.7,5.3,157.6,16.8,172.5,33.6z
			 M27.8,87.6c6.9-3.7,15.1-4.4,20.2-8.2C31,79.5,7.4,91.8,6,107.8c-1.5,16.7,26.4,21.4,40.5,22.5c-14-3.5-35.7-4.4-38.2-17.2
			C5.7,100.3,20.1,91.6,27.8,87.6z"/>
		<path d="M97.5,40.3c3.6-13.1,25.9-7.7,21,9C116,41.8,101.7,46.1,97.5,40.3z"/>
		<path d="M102,146.1c-6.2,0-12.5,0-18.8,0c2.8-7.4,10.2-10.3,14.2-16.5C100,134,99.4,141.7,102,146.1z"/>
	</g>
	<g>
		<path class="st0" d="M97.5,2.1c48-3.3,85,27.3,99,61.5c20,48.7-5.1,93.2-31.5,114c-32.4,25.5-83.1,28.9-119.2,4.5
			c-30.7-20.8-53.9-62.5-39-111C13.2,50.2,22.4,37.4,39,23.8C53.8,11.7,71.9,3.8,97.5,2.1z"/>
	</g>
</g>
</svg>
