<?xml version="1.0" encoding="utf-8"?>
<!-- Generator: Adobe Illustrator 24.0.1, SVG Export Plug-In . SVG Version: 6.00 Build 0)  -->
<svg version="1.1" id="Layer_1" xmlns="http://www.w3.org/2000/svg" xmlns:xlink="http://www.w3.org/1999/xlink" x="0px" y="0px"
	 viewBox="0 0 16 16" style="enable-background:new 0 0 16 16;" xml:space="preserve">
<style type="text/css">
	.st0{fill:none;stroke:#FFFFFF;stroke-width:0.6223;stroke-miterlimit:10;}
	.st1{fill:none;stroke:#FFFFFF;stroke-width:3.924787e-02;stroke-miterlimit:10;}
</style>
<g id="XMLID_2_">
	<g>
		<path d="M-181.8-23.3c0.2,70.9-53,120.6-113.9,126c-76,6.7-141.8-47.6-141.8-125c0-36.5,16.2-66.2,33.6-84.9
			c17.8-19.1,44.6-35.7,80.3-39.2c46.4-4.6,83.5,12.7,107.3,38.3C-198.7-89.4-181.9-57.3-181.8-23.3z M-232.2,73.8
			c32.8-25.8,64-81.3,39.2-141.9c-17.4-42.5-63.4-80.6-123.2-76.5c-31.8,2.2-54.3,12-72.8,27.1c-20.7,16.9-32.1,32.9-40.1,58.8
			c-18.6,60.4,10.3,112.3,48.5,138.1C-335.6,109.8-272.5,105.5-232.2,73.8z"/>
		<path d="M-218.2-101.7c20.1,22.1,33.4,50.6,30.8,88.7c-3.9,58.2-51.3,106.6-112,111c-46.6,3.4-83.2-17.3-102.6-42.9
			c39.2,0,78.4,0,117.6,0c2.4-0.7,2.4-3.8,3.7-5.6c2.1,0.4,0,5,1.9,5.6c10.9-0.6,24.2,1.2,33.6-0.9c-2.1-10.1-3.2-21.5-2.8-33.6
			c5.5-0.2,6.1,4.5,12.1,3.7c2.2-3.4,0.3-10.9,0.9-15.9c-0.5-2.2-11,3.8-6.5,0.9c0-0.9,1.1-0.7,1.9-0.9c6.1-8.1,1.2-17.4-6.5-17.7
			c-10.1-0.4-15,14.5-3.7,18.7c-3.5,2.5-7-3-10.3-3.7c-0.3,5.6,0.7,12.6-0.9,16.8c3.5,3,3.8-3.7,7.5-0.9
			c-3.1,13.3-38.8,8.9-40.1-4.7c-1.2-12.3,16.4-36.7,24.3-42c10.7-7.2,26.6-2.2,18.7,14.9c5,0,10,0,14.9,0
			c12.6-26.2-18.7-41.5-37.3-28c12.1-18.4,31.5-37.6,45.7-56.9c3.4,0,6.8,0,10.3,0C-215.6-95.6-218.3-99.6-218.2-101.7z M-227.5,0
			c10.1-6.5,38.6-13.2,38.3-28c-0.4-17.2-44.1-23-58.8-23.3c16.5,3.5,55.1,6.5,56,23.3C-191.1-11-217.4-9.4-227.5,0z"/>
		<path d="M-222.8-105.4c-11.8,0-23.6,0-35.5,0c-5.9,3.1-7.1,11-13.1,14c-1.2-12.3-3.7-22.6-13.1-27.1c-20.8-9.8-60.1,8.7-53.2,28.9
			c4.5,13.3,34.5,2.9,33.6,23.3c-0.8,19.4-45.6,24.4-41.1-4.7c-6.8,0-13.7,0-20.5,0c0.9,13.4,2.3,26.3,14,28.9
			c-5.3,2.2-14.6,0.3-21.5,0.9c-4.1,3.7-4.7,10.8-7.5,15.9c15.9,0.6,28.9-1.6,44.8-0.9c1,4.1-4,6.5-6.5,9.3
			c-19.6,21.9-42.3,47.1-62.5,69.1c-17.2-20.6-29.9-45.5-27.1-84.9c4.8-66.7,64.5-114.2,129.7-110.1
			C-267.4-140.6-241.3-126.2-222.8-105.4z M-403-38.2c8.6-4.5,18.8-5.4,25.2-10.3c-21.2,0.2-50.5,15.5-52.3,35.5
			c-1.9,20.8,32.8,26.6,50.4,28C-397,10.6-424,9.5-427.2-6.5C-430.4-22.3-412.5-33.2-403-38.2z"/>
		<path d="M-316.2-97c4.4-16.4,32.2-9.6,26.1,11.2C-293.2-95.1-311-89.8-316.2-97z"/>
		<path d="M-310.6,34.6c-7.8,0-15.6,0-23.3,0c3.5-9.2,12.6-12.9,17.7-20.5C-313,19.6-313.8,29.1-310.6,34.6z"/>
	</g>
	<g>
		<path class="st0" d="M-316.2-144.6c59.8-4.1,105.8,34,123.2,76.5c24.8,60.6-6.4,116.1-39.2,141.9c-40.3,31.8-103.4,36-148.4,5.6
			c-38.2-25.8-67.1-77.8-48.5-138.1c8-25.9,19.4-41.9,40.1-58.8C-370.5-132.6-348-142.4-316.2-144.6z"/>
	</g>
</g>
<g id="XMLID_1_">
	<g>
		<path d="M12.8,14.1c2-1.6,4-5.2,2.4-9c-1.1-2.7-4-5.1-7.7-4.9C5.6,0.3,4.2,1,3,1.9C1.7,3,1,4,0.5,5.7c-1.2,3.8,0.6,7.2,3,8.8
			C6.4,16.4,10.3,16.1,12.8,14.1z M13.8,2.5C14.9,3.7,16,5.8,16,7.9c0,4.5-3.3,7.7-7.1,8C4.1,16.4,0,12.9,0,8c0-2.3,1-4.2,2.1-5.4
			c1.1-1.2,2.8-2.3,5-2.5C10-0.2,12.3,0.9,13.8,2.5z"/>
		<path d="M7.6,3.2c0.3-1,2-0.6,1.6,0.7C9,3.3,7.9,3.7,7.6,3.2z"/>
		<path d="M15.3,7.6c0.1,1.1-1.6,1.2-2.2,1.8c0.6-0.4,2.4-0.8,2.4-1.8c0-1.1-2.8-1.5-3.7-1.5C12.9,6.4,15.3,6.5,15.3,7.6z M12.6,9.9
			c0-0.1-0.7,0.2-0.4,0.1c0-0.1,0.1,0,0.1-0.1c0.4-0.5,0.1-1.1-0.4-1.1c-0.6,0-0.9,0.9-0.2,1.2c-0.2,0.2-0.4-0.2-0.6-0.2
			c0,0.4,0,0.8-0.1,1.1c0.2,0.2,0.2-0.2,0.5-0.1c-0.2,0.8-2.4,0.6-2.5-0.3c-0.1-0.8,1-2.3,1.5-2.7c0.7-0.5,1.7-0.1,1.2,1
			c0.3,0,0.6,0,0.9,0c0.8-1.7-1.2-2.6-2.3-1.8c0.8-1.2,2-2.4,2.9-3.6c0.2,0,0.4,0,0.6,0c0.1,0-0.1-0.3-0.1-0.4
			c1.3,1.4,2.1,3.2,1.9,5.7c-0.2,3.7-3.2,6.8-7,7.1c-2.9,0.2-5.2-1.1-6.4-2.7c2.4,0,4.9,0,7.3,0c0.1,0,0.1-0.2,0.2-0.4
			c0.1,0,0,0.3,0.1,0.4c0.7,0,1.5,0.1,2.1-0.1c-0.1-0.6-0.2-1.4-0.2-2.1c0.3,0,0.4,0.3,0.8,0.2C12.7,10.7,12.6,10.3,12.6,9.9z"/>
		<path d="M7.9,11.6c-0.5,0-1,0-1.5,0c0.2-0.6,0.8-0.8,1.1-1.3C7.8,10.7,7.7,11.3,7.9,11.6z"/>
		<path d="M3.6,10.4C2.5,10.1,0.8,10,0.6,9C0.4,8,1.6,7.3,2.2,7c0.5-0.3,1.2-0.3,1.6-0.7c-1.3,0-3.2,1-3.3,2.3
			C0.4,9.9,2.5,10.3,3.6,10.4z M8.4,0.3c2.2,0.1,3.8,1.1,5,2.4c-0.7,0-1.5,0-2.2,0c-0.4,0.2-0.4,0.7-0.8,0.9
			c-0.1-0.8-0.2-1.4-0.8-1.7C8.3,1.2,5.8,2.4,6.2,3.7c0.3,0.8,2.2,0.2,2.1,1.5C8.3,6.4,5.5,6.7,5.8,4.9c-0.4,0-0.9,0-1.3,0
			c0.1,0.9,0.1,1.7,0.9,1.8C5,6.9,4.4,6.8,4,6.8C3.8,7,3.7,7.5,3.6,7.8c1,0,1.8-0.1,2.8-0.1C6.4,8,6.1,8.2,5.9,8.3
			c-1.2,1.4-2.6,3-3.9,4.4C1,11.4,0.2,9.8,0.4,7.3C0.6,3.1,4.4,0,8.4,0.3z"/>
	</g>
	<g>
		<path class="st1" d="M7.6,0.2c3.7-0.3,6.6,2.2,7.7,4.9c1.6,3.9-0.4,7.4-2.4,9c-2.5,2-6.5,2.3-9.3,0.4c-2.4-1.6-4.2-5-3-8.8
			C1,4,1.7,3,3,1.9C4.2,1,5.6,0.3,7.6,0.2z"/>
	</g>
</g>
</svg>
