<?xml version="1.0" encoding="utf-8"?>
<!-- Generator: Adobe Illustrator 24.0.1, SVG Export Plug-In . SVG Version: 6.00 Build 0)  -->
<svg version="1.1" id="Layer_1" xmlns="http://www.w3.org/2000/svg" xmlns:xlink="http://www.w3.org/1999/xlink" x="0px" y="0px"
	 viewBox="0 0 32 32" style="enable-background:new 0 0 32 32;" xml:space="preserve">
<style type="text/css">
	.st0{fill:#FFFFFF;}
</style>
<circle cx="16" cy="15.9" r="16"/>
<circle class="st0" cx="16.4" cy="6.4" r="4.8"/>
<path class="st0" d="M8.9,8.3c0,0,6.8,8.8,15.1,0c0.1,5.9,0,8.8,0,8.8s-7.1-4.4-15.1,0C8.9,12.7,8.9,8.3,8.9,8.3z"/>
<path class="st0" d="M14.1,15.1c0,0,0.7,8-2.6,14.9H20c0,0-3.2-10.1-2.2-14.9S14.1,15.1,14.1,15.1z"/>
<polyline class="st0" points="24,17.1 25.2,17.1 25.2,8.2 24,8.3 "/>
<polyline class="st0" points="8.9,8.3 7.5,8.3 7.5,17.1 8.9,17.1 "/>
</svg>
