<?xml version="1.0" encoding="utf-8"?>
<!-- Generator: Adobe Illustrator 24.0.1, SVG Export Plug-In . SVG Version: 6.00 Build 0)  -->
<svg version="1.1" id="Layer_1" xmlns="http://www.w3.org/2000/svg" xmlns:xlink="http://www.w3.org/1999/xlink" x="0px" y="0px"
	 viewBox="0 0 64 64" style="enable-background:new 0 0 64 64;" xml:space="preserve">
<style type="text/css">
	.st0{fill:none;stroke:#FFFFFF;stroke-width:0.6223;stroke-miterlimit:10;}
	.st1{fill:none;stroke:#FFFFFF;stroke-width:0.1543;stroke-miterlimit:10;}
</style>
<g id="XMLID_2_">
	<g>
		<path d="M-157.8,0.7c0.2,70.9-53,120.6-113.9,126c-76,6.7-141.8-47.6-141.8-125c0-36.5,16.2-66.2,33.6-84.9
			c17.8-19.1,44.6-35.7,80.3-39.2c46.4-4.6,83.5,12.7,107.3,38.3C-174.7-65.4-157.9-33.3-157.8,0.7z M-208.2,97.8
			c32.8-25.8,64-81.3,39.2-141.9c-17.4-42.5-63.4-80.6-123.2-76.5c-31.8,2.2-54.3,12-72.8,27.1c-20.7,16.9-32.1,32.9-40.1,58.8
			c-18.6,60.4,10.3,112.3,48.5,138.1C-311.6,133.8-248.5,129.5-208.2,97.8z"/>
		<path d="M-194.2-77.7c20.1,22.1,33.4,50.6,30.8,88.7c-3.9,58.2-51.3,106.6-112,111c-46.6,3.4-83.2-17.3-102.6-42.9
			c39.2,0,78.4,0,117.6,0c2.4-0.7,2.4-3.8,3.7-5.6c2.1,0.4,0,5,1.9,5.6c10.9-0.6,24.2,1.2,33.6-0.9c-2.1-10.1-3.2-21.5-2.8-33.6
			c5.5-0.2,6.1,4.5,12.1,3.7c2.2-3.4,0.3-10.9,0.9-15.9c-0.5-2.2-11,3.8-6.5,0.9c0-0.9,1.1-0.7,1.9-0.9c6.1-8.1,1.2-17.4-6.5-17.7
			c-10.1-0.4-15,14.5-3.7,18.7c-3.5,2.5-7-3-10.3-3.7c-0.3,5.6,0.7,12.6-0.9,16.8c3.5,3,3.8-3.7,7.5-0.9
			c-3.1,13.3-38.8,8.9-40.1-4.7c-1.2-12.3,16.4-36.7,24.3-42c10.7-7.2,26.6-2.2,18.7,14.9c5,0,10,0,14.9,0
			c12.6-26.2-18.7-41.5-37.3-28c12.1-18.4,31.5-37.6,45.7-56.9c3.4,0,6.8,0,10.3,0C-191.6-71.6-194.3-75.6-194.2-77.7z M-203.5,24
			c10.1-6.5,38.6-13.2,38.3-28c-0.4-17.2-44.1-23-58.8-23.3c16.5,3.5,55.1,6.5,56,23.3C-167.1,13-193.4,14.6-203.5,24z"/>
		<path d="M-198.8-81.4c-11.8,0-23.6,0-35.5,0c-5.9,3.1-7.1,11-13.1,14c-1.2-12.3-3.7-22.6-13.1-27.1c-20.8-9.8-60.1,8.7-53.2,28.9
			c4.5,13.3,34.5,2.9,33.6,23.3c-0.8,19.4-45.6,24.4-41.1-4.7c-6.8,0-13.7,0-20.5,0c0.9,13.4,2.3,26.3,14,28.9
			c-5.3,2.2-14.6,0.3-21.5,0.9c-4.1,3.7-4.7,10.8-7.5,15.9c15.9,0.6,28.9-1.6,44.8-0.9c1,4.1-4,6.5-6.5,9.3
			c-19.6,21.9-42.3,47.1-62.5,69.1c-17.2-20.6-29.9-45.5-27.1-84.9c4.8-66.7,64.5-114.2,129.7-110.1
			C-243.4-116.6-217.3-102.2-198.8-81.4z M-379-14.2c8.6-4.5,18.8-5.4,25.2-10.3C-374.9-24.3-404.3-8.9-406,11
			c-1.9,20.8,32.8,26.6,50.4,28c-17.4-4.4-44.4-5.5-47.6-21.5C-406.4,1.7-388.5-9.2-379-14.2z"/>
		<path d="M-292.2-73c4.4-16.4,32.2-9.6,26.1,11.2C-269.2-71.1-287-65.8-292.2-73z"/>
		<path d="M-286.6,58.6c-7.8,0-15.6,0-23.3,0c3.5-9.2,12.6-12.9,17.7-20.5C-289,43.6-289.8,53.1-286.6,58.6z"/>
	</g>
	<g>
		<path class="st0" d="M-292.2-120.6c59.8-4.1,105.8,34,123.2,76.5c24.8,60.6-6.4,116.1-39.2,141.9c-40.3,31.8-103.4,36-148.4,5.6
			c-38.2-25.8-67.1-77.8-48.5-138.1c8-25.9,19.4-41.9,40.1-58.8C-346.5-108.6-324-118.4-292.2-120.6z"/>
	</g>
</g>
<g id="XMLID_1_">
	<g>
		<path d="M54.8,12.4c5,5.4,8.3,12.4,7.7,21.8c-1,14.3-12.8,26.2-28,27.3C22.9,62.4,13.8,57.3,8.9,51c9.8,0,19.6,0,29.4,0
			c0.6-0.2,0.6-0.9,0.9-1.4c0.5,0.1,0,1.2,0.5,1.4c2.7-0.1,6,0.3,8.4-0.2c-0.5-2.5-0.8-5.3-0.7-8.3c1.4,0,1.5,1.1,3,0.9
			c0.5-0.8,0.1-2.7,0.2-3.9c-0.1-0.5-2.8,0.9-1.6,0.2c0-0.2,0.3-0.2,0.5-0.2c1.5-2,0.3-4.3-1.6-4.4c-2.5-0.1-3.8,3.6-0.9,4.6
			c-0.9,0.6-1.7-0.7-2.6-0.9c-0.1,1.4,0.2,3.1-0.2,4.1c0.9,0.7,0.9-0.9,1.9-0.2c-0.8,3.3-9.7,2.2-10-1.1c-0.3-3,4.1-9,6.1-10.3
			c2.7-1.8,6.7-0.5,4.7,3.7c1.2,0,2.5,0,3.7,0c3.2-6.4-4.7-10.2-9.3-6.9c3-4.5,7.9-9.2,11.4-14c0.9,0,1.7,0,2.6,0
			C55.5,13.9,54.8,12.9,54.8,12.4z M52.5,37.4c2.5-1.6,9.7-3.2,9.6-6.9c-0.1-4.2-11-5.7-14.7-5.7c4.1,0.9,13.8,1.6,14,5.7
			C61.6,34.7,55,35.1,52.5,37.4z"/>
		<path d="M30.4,13.5c1.1-4,8.1-2.4,6.5,2.8C36.1,14,31.7,15.3,30.4,13.5z"/>
		<path d="M31.8,45.9c-1.9,0-3.9,0-5.8,0c0.9-2.3,3.2-3.2,4.4-5.1C31.2,42.2,31,44.6,31.8,45.9z"/>
		<path d="M1.5,29.4C2.7,13,17.6,1.3,33.9,2.3c8.7,0.5,15.2,4.1,19.8,9.2c-3,0-5.9,0-8.9,0c-1.5,0.8-1.8,2.7-3.3,3.4
			c-0.3-3-0.9-5.6-3.3-6.7c-5.2-2.4-15,2.1-13.3,7.1c1.1,3.3,8.6,0.7,8.4,5.7c-0.2,4.8-11.4,6-10.3-1.1c-1.7,0-3.4,0-5.1,0
			c0.2,3.3,0.6,6.5,3.5,7.1c-1.3,0.5-3.6,0.1-5.4,0.2c-1,0.9-1.2,2.7-1.9,3.9c4,0.2,7.2-0.4,11.2-0.2c0.2,1-1,1.6-1.6,2.3
			c-4.9,5.4-10.6,11.6-15.6,17C3.9,45.2,0.8,39.1,1.5,29.4z M8.7,28c2.1-1.1,4.7-1.3,6.3-2.5c-5.3,0.1-12.6,3.8-13.1,8.7
			c-0.5,5.1,8.2,6.5,12.6,6.9C10.2,40,3.4,39.7,2.6,35.8C1.8,31.9,6.3,29.2,8.7,28z"/>
		<path d="M12.2,8.5c-5.2,4.2-8,8.1-10,14.5c-4.6,14.9,2.6,27.6,12.1,34c11.2,7.5,27,6.4,37.1-1.4c8.2-6.4,16-20,9.8-34.9
			C56.8,10.2,45.3,0.8,30.4,1.8C22.4,2.4,16.8,4.8,12.2,8.5z M0.1,31.9c0-9,4-16.3,8.4-20.9c4.5-4.7,11.1-8.8,20-9.6
			c11.6-1.1,20.9,3.1,26.8,9.4c4.4,4.6,8.6,12.5,8.6,20.9c0.1,17.5-13.2,29.7-28.4,31C16.5,64.3,0.1,51,0.1,31.9z"/>
	</g>
	<g>
		<path class="st1" d="M30.4,1.8c14.9-1,26.4,8.4,30.8,18.8c6.2,14.9-1.6,28.6-9.8,34.9c-10.1,7.8-25.8,8.9-37.1,1.4
			C4.7,50.6-2.5,37.8,2.2,23c2-6.4,4.9-10.3,10-14.5C16.8,4.8,22.4,2.4,30.4,1.8z"/>
	</g>
</g>
</svg>
