<svg id="Layer_1" data-name="Layer 1" xmlns="http://www.w3.org/2000/svg" width="16.1in" height="4.9in" viewBox="0 0 1159.3 349.3"><title>Artboard 8</title><path d="M15.6,295.8l19.7-47.6-.9-1.7A139.5,139.5,0,0,1,23.5,223a143.5,143.5,0,0,1,.1-95.9,136.9,136.9,0,0,1,10.6-23,142.4,142.4,0,0,1,88.7-67.3,137.3,137.3,0,0,1,27.4-4.2l7.7-.2A142.3,142.3,0,0,1,264.4,80l15.1-36.4-17.6-7.9,24.8-17.8,4.9-3.6L311.4,0l3.1,30.4,3.1,30.3-17-7.6-.2.2-20,48.3,1.5,2.5a154.9,154.9,0,0,1,10.6,23,144,144,0,0,1,8.2,48,142.6,142.6,0,0,1-8.2,47.9,139.1,139.1,0,0,1-10.8,23.5,142.7,142.7,0,0,1-115.8,71.2l-7.9.2A142.2,142.2,0,0,1,51.8,270.5L37.2,305.8h0l18.2,8.4-25,17.5L5.5,349.3,3.3,325.5h0l-.6-6.5L0,288.6ZM277.9,175.1a118.3,118.3,0,0,0-9.1-45.7L230.1,223l-9.7,23.5H61.7A119.9,119.9,0,0,0,158,295a116.9,116.9,0,0,0,17.9-1.3,121.5,121.5,0,0,0,28.2-7.9,119.1,119.1,0,0,0,50.2-39.3A114.2,114.2,0,0,0,267.9,223,119,119,0,0,0,277.9,175.1Zm-23.5-71h.1A119.9,119.9,0,0,0,158,55.3a113,113,0,0,0-17.6,1.3,122.9,122.9,0,0,0-29.1,8.1,120.5,120.5,0,0,0-49.8,39.4,112,112,0,0,0-13.3,23,120.7,120.7,0,0,0-1.3,93.1l38.5-93.1,9.6-23H254.4ZM205.2,223l39.7-95.9H165.5a48.5,48.5,0,0,1,28.6,80.3,48.1,48.1,0,0,1-29,15.6ZM71.5,223h79.3a48.5,48.5,0,0,1-11.5-92.8,50.6,50.6,0,0,1,11.1-3.1H111.2Z" fill="#b71f26"/><path d="M424.3,211.2c0,11.3-4,20.2-12.2,26.7s-19.4,9.7-33.8,9.7-25.2-2.5-35.4-7.5V215.5a147.7,147.7,0,0,0,21.4,7.9,60.5,60.5,0,0,0,16,2.3c5.8,0,10.3-1.1,13.4-3.3s4.6-5.5,4.6-9.9a10.8,10.8,0,0,0-2-6.6,25,25,0,0,0-6-5.5,168.7,168.7,0,0,0-16.2-8.4c-7.7-3.6-13.4-7.1-17.2-10.4a37.4,37.4,0,0,1-9.1-11.5,32.7,32.7,0,0,1-3.5-15.4c0-11,3.8-19.7,11.3-26.1s17.8-9.4,31-9.4a70.8,70.8,0,0,1,18.6,2.3,120.9,120.9,0,0,1,18.5,6.5l-8.5,20.6a120.3,120.3,0,0,0-16.6-5.8,56.8,56.8,0,0,0-12.8-1.6c-5,0-8.9,1.2-11.6,3.5a11.9,11.9,0,0,0-4,9.2,11.4,11.4,0,0,0,1.7,6.1,17.4,17.4,0,0,0,5.1,5c2.4,1.6,8,4.6,16.8,8.8q17.6,8.3,24,16.8C422.2,196.2,424.3,203,424.3,211.2Z" fill="#231f20"/><path d="M447,245.9V121h26.5V224h50.6v21.9Z" fill="#231f20"/><path d="M617.8,245.9h-72V121h72v21.7H572.3v27.4h42.3v21.7H572.3V224h45.5Z" fill="#231f20"/><path d="M715.8,245.9h-72V121h72v21.7H670.3v27.4h42.3v21.7H670.3V224h45.5Z" fill="#231f20"/><path d="M787.5,175.7h49.6v64.8a135.4,135.4,0,0,1-22.7,5.5,141.2,141.2,0,0,1-21.7,1.6c-18.9,0-33.3-5.5-43.2-16.6s-15-27-15-47.7,5.8-35.9,17.3-47.2,27.6-16.9,48-16.9a91.7,91.7,0,0,1,37.1,7.7L828.1,148a63.5,63.5,0,0,0-28.4-6.8c-11.5,0-20.7,3.9-27.6,11.5s-10.3,18.1-10.3,31.1,2.8,23.9,8.3,31,13.7,10.7,24.3,10.7a81.2,81.2,0,0,0,16.8-1.7v-26H787.5Z" fill="#231f20"/><path d="M937,245.9H865.1V121H937v21.7H891.6v27.4h42.3v21.7H891.6V224H937Z" fill="#231f20"/><path d="M989.6,197.9v48H963.1V121h36.4c17,0,29.5,3,37.7,9.2s12.2,15.6,12.2,28.2a32.8,32.8,0,0,1-6.1,19.6c-4,5.7-9.8,10.2-17.2,13.5l36.8,54.4h-29.4l-29.8-48Zm0-21.5h8.5q12.6,0,18.6-4.2c3.9-2.8,5.9-7.1,5.9-13.1s-2-10.2-6.1-12.7-10.4-3.7-18.9-3.7h-8Z" fill="#231f20"/><path d="M1152.4,211.2c0,11.3-4.1,20.2-12.2,26.7s-19.4,9.7-33.9,9.7-25.1-2.5-35.4-7.5V215.5a147.7,147.7,0,0,0,21.4,7.9,61.1,61.1,0,0,0,16,2.3c5.9,0,10.3-1.1,13.4-3.3s4.7-5.5,4.7-9.9a10.8,10.8,0,0,0-2.1-6.6,23.2,23.2,0,0,0-6-5.5,146.5,146.5,0,0,0-16.2-8.4c-7.6-3.6-13.4-7.1-17.2-10.4a38.9,38.9,0,0,1-9.1-11.5,32.7,32.7,0,0,1-3.4-15.4c0-11,3.7-19.7,11.2-26.1s17.9-9.4,31.1-9.4a70.8,70.8,0,0,1,18.6,2.3,128.8,128.8,0,0,1,18.5,6.5l-8.6,20.6a124.5,124.5,0,0,0-16.5-5.8,58.4,58.4,0,0,0-12.9-1.6c-5,0-8.8,1.2-11.5,3.5a11.6,11.6,0,0,0-4,9.2,11.3,11.3,0,0,0,1.6,6.1,17.9,17.9,0,0,0,5.2,5c2.3,1.6,7.9,4.6,16.7,8.8,11.7,5.5,19.7,11.1,24.1,16.8S1152.4,203,1152.4,211.2Z" fill="#231f20"/></svg>