<svg xmlns="http://www.w3.org/2000/svg" id="Layer_1" width="16" height="16" viewBox="0 0 16 16"><ellipse cx="3.5" cy="13.3" rx="1" ry="1.1"/><ellipse cx="8.3" cy="13.3" rx="1" ry="1.1"/><path d="M6.5 10.2l-.6.7-1.4 1.7-.6-.7 1.4-1.7.6-.6.6.6z"/><path d="M7.8 11.9l-.6.7-1.3-1.7-.6-.7.6-.6 1.9 2.3z"/><path fill="#fff" d="M1.6 10.5L.4 4l11.3.1-1.1 6.4h-9z"/><path d="M.7 4.3h10.6l-.9 5.8H1.8L.7 4.3M0 3.7l1.4 7.1h9.5l1.1-7z"/><path d="M13.8 2.6H13l-1.1 1.7-.3-.4 1.1-1.6.6-.7.5 1z"/><path d="M16 2.6h-2.8l.1-1H16v1z"/></svg>