<svg xmlns="http://www.w3.org/2000/svg" width="16" height="16" viewBox="0 0 16 16"><ellipse cx="3.5" cy="14.6" rx="1" ry="1.4"/><ellipse cx="8.3" cy="14.6" rx="1" ry="1.4"/><path d="M6.5 10.8l-.6.9-1.4 2-.6-.9 1.4-2 .6-.9.6.9z"/><path d="M7.8 12.8l-.6.9-1.3-2-.6-.9.6-.9 1.9 2.9z"/><path fill="#fff" d="M1.6 11.2L.4 3l11.3.1-1.1 8.1h-9z"/><path d="M.8 3.3l10.5.2-1 7.4H1.9L.8 3.3M0 2.6l1.4 8.9h9.5L12 2.8 0 2.6z"/><path d="M13.8 1.3l-.8-.1-1.1 2.1-.3-.4 1.1-2 .6-.9.5 1.3z"/><path d="M16 1.3h-.9l-1.9-.1.1-1.2h1.9l.8.1v1.2z"/></svg>