<svg xmlns="http://www.w3.org/2000/svg" id="Layer_1" width="30.4" height="14.8" viewBox="0 0 30.4 14.8"><path fill="#fff" stroke="#000" stroke-miterlimit="10" stroke-width=".43" d="M.2.2h30v14.41H.2z"/><ellipse cx="14.9" cy="7.2" fill="#fff" stroke="#000" stroke-miterlimit="10" stroke-width=".21" rx="4.9" ry="5.1"/><path d="M12.8 5.5h1.9v.8h-.9v.4h.9v.8h-.9v.4h.9v.8h-1.9zm3.1.8H15l.3-.8h2l-1 2.4h1l-.3.8h-2.2z"/><path fill="#fff" stroke="#000" stroke-miterlimit="10" stroke-width=".21" d="M6.3 10.1H2.2C2.4 8.3 3.2 7 4.3 7s1.9 1.3 2 3.1z"/><path fill="none" stroke="#000" stroke-miterlimit="10" stroke-width=".21" d="M6.3 10.1H2.2"/><ellipse cx="4.3" cy="6.2" fill="#fff" stroke="#000" stroke-miterlimit="10" stroke-width=".21" rx="1.3" ry="1.4"/><path fill="#fff" stroke="#000" stroke-miterlimit="10" stroke-width=".21" d="M27.1 10.1h-4.2C23.1 8.3 24 7 25 7s1.9 1.3 2.1 3.1z"/><path fill="none" stroke="#000" stroke-miterlimit="10" stroke-width=".21" d="M27.1 10.1h-4.2"/><ellipse cx="25" cy="6.2" fill="#fff" stroke="#000" stroke-miterlimit="10" stroke-width=".21" rx="1.3" ry="1.4"/></svg>