<svg xmlns="http://www.w3.org/2000/svg" width="16" height="12" viewBox="0 0 16 12"><path d="M7.3 8H6V5.7h1.6c.3 0 .5-.1.5-.3l-.2-.3-.4-.1-.5-.4-.4-.5-.4-.6a1.9 1.9 0 0 1-.2-.8 1.5 1.5 0 0 1 .4-1.1 1.6 1.6 0 0 1 .9-.7V0h1.8v.7h.7v2H8.7c0 .1 0 .1.1.2l.4.3c.1.1.3.2.4.4a1.2 1.2 0 0 1 .5.5c.1.2.3.4.3.6a2.4 2.4 0 0 1 .2.8 1.8 1.8 0 0 1-.4 1.3 1.5 1.5 0 0 1-1.1.8v.9H7.3zm.8-6.3l-.7.3a.9.9 0 0 0-.3.7.7.7 0 0 0 .2.6l.3.5.6.5.5.5.4.4a1.3 1.3 0 0 1 .1.6.8.8 0 0 1-.3.7 1.5 1.5 0 0 1-1 .3h-1V7h1.2v1h.2V7l.5-.2.4-.2a.8.8 0 0 0 .2-.4.9.9 0 0 0 .1-.5 1.3 1.3 0 0 0-.1-.6L9 4.7l-.6-.5c-.1-.2-.3-.3-.5-.5l-.4-.5a.7.7 0 0 1-.1-.5.8.8 0 0 1 .2-.5 1.1 1.1 0 0 1 .8-.2h.5v-.3h-.6V.6h-.2zm-4.5 9.7l-.4.2-.4.2h-.3L1.6 10H2l1-.6c.3-.2.3-.4.2-.6s-.1-.1-.2-.1H1.3l-.6-.5c-.2-.1-.3-.3-.5-.6A2.5 2.5 0 0 1 0 6.4a2.7 2.7 0 0 1 .5-1.1l-.4-.8 1.5-1.1.4.6h.7l.8 1.6h-.3c-.1.1-.2.1-.2.2h-.3V6h1.7l.6.4a1 1 0 0 1 .5.6 2.8 2.8 0 0 1 .3 1.3 3.7 3.7 0 0 1-.7 1.4l.4.7L4 12zM1.5 5.5a2.5 2.5 0 0 0-.4.7.8.8 0 0 0 .1.8l.3.4.6.2h1.3l.6.2.3.3a1 1 0 0 1 .1.9 2.7 2.7 0 0 1-.7.8l-.4.2c-.1.1-.1.2-.2.2h-.3v.2h.6l.3-.2h.1l.4.9.3-.2L4 10l.3-.4.2-.4a1.1 1.1 0 0 0 .1-.5 4.3 4.3 0 0 0-.1-.5l-.4-.4-.6-.2H2.3l-.5-.2c-.2 0-.3-.1-.4-.3a.6.6 0 0 1 0-.6 1 1 0 0 1 .5-.7h.5V5H2l-.2.2h-.1l-.4-.9-.2.2zm9.8 5l-.5-.3-.3-.2v-.2h-.2l.7-1.9c.1 0 .1.1.2.2h.2l.9.6c.4.2.5.1.6-.1s0-.2 0-.3l-.3-.5-.3-.6-.3-.6c-.1-.3-.1-.5-.2-.8A3.1 3.1 0 0 1 12 5a1.3 1.3 0 0 1 .7-.9 1.6 1.6 0 0 1 1-.2l.3-.8 1.7.8-.3.7.3.2h.2l.2.2-.6 1.8H15l-.2-.2h-.6v.3c0 .1.1.2.2.4l.3.6.3.7c0 .2.1.5.1.7a2.2 2.2 0 0 1-.1.8 2.1 2.1 0 0 1-.8 1 1.4 1.4 0 0 1-1.3.2l-.3.8-1.6-.8zM14.1 5h-.8a1.2 1.2 0 0 0-.5.5v.6a1.9 1.9 0 0 0 .2.7l.3.7.4.6a1.4 1.4 0 0 0 .2.7.7.7 0 0 1-.1.5 1 1 0 0 1-.5.6 2 2 0 0 1-1-.2l-.3-.2-.3-.2h-.3v.3h.6l.3.2h.1l-.3.9.2.2.4-1h.9l.3-.2.3-.4a.8.8 0 0 0 0-.7A1.4 1.4 0 0 0 14 8l-.3-.7-.3-.7a1.4 1.4 0 0 1-.2-.6.4.4 0 0 1 0-.5c.1-.3.2-.4.4-.4a1.2 1.2 0 0 1 .8.1h.3a.1.1 0 0 1 .1.1h.1v.2h-.2a.1.1 0 0 0-.1-.1h-.3l.4-.9-.3-.5z"/></svg>