<svg xmlns="http://www.w3.org/2000/svg" id="Layer_1" width="16" height="12" viewBox="0 0 16 12"><path fill="#28f731" stroke="#000" stroke-miterlimit="10" stroke-width=".25" d="M7.3 7.9l-1.2-.2V5.6c5 .6-2.9-1.4 1.2-4.5V.2H9v.7h.7v2c-3.9-.1 4 1.6-.7 4.9v.8H7.3zM8 1.8c-3.6.5 4.9 4.9-1.1 4.8v.3H8V8h.2V6.9c4-.6-3.9-4.6.6-4.8v-.3h-.6v-1H8z"/><path fill="#28f731" stroke="#000" stroke-miterlimit="10" stroke-width=".25" d="M3.8 11.1l-1.1.5-.9-1.7c4.5-2.6-3.1.5-1-4.6l-.4-.8 1.5-1 .3.6.6-.4.9 1.6C.3 7.6 7.8 4.2 5.2 9.9l.3.7-1.4 1zm-2-5.6c-2.9 2.6 6.3 1 1.1 4.7l.2.2.9-.6.4.9.3-.2-.5-.8c3.2-3-5.4-1.6-1.6-4.5v-.3l-.6.4-.5-.9-.2.2zm9.3 4.7L10 9.5l.7-1.9C15 10.4 8.6 4.9 13.3 4l.3-.8 1.5.8-.2.6.7.4-.7 1.8c-3.5-2 3.2 3.2-2.2 4.1l-.3.8-1.6-.8zM13.7 5c-3.5-1.1 3 6.7-2.5 3.9v.2l.9.6-.3.9.2.2.4-1c3.9 1.2-2.1-6 2.1-4.1v-.3l-.6-.3.4-.9h-.2z"/></svg>