<svg xmlns="http://www.w3.org/2000/svg" width="15.6" height="15" viewBox="0 0 15.6 15"><path fill="#fff" d="M2.5.3H10v7.65H2.5z"/><path d="M9.7.6v7H2.8v-7h6.9m.6-.6h-8v8.2h8V0z"/><path fill="#fff" d="M.3 2h7.5v7.65H.3z"/><path d="M7.5 2.3v7.1H.6V2.3h6.9m.6-.6H0V10h8.1V1.7z"/><path fill="none" stroke="#000" stroke-miterlimit="10" stroke-width=".58" d="M10.1 8L7.9 9.7M10 .4L7.8 2.1M2.4.2L.2 2"/><path fill="#fff" stroke="#fff" stroke-miterlimit="10" stroke-width=".58" d="M9.5 6.9v.9l-1.1.9v-2l1.1.2z"/><path fill="#fff" stroke="#fff" stroke-miterlimit="10" stroke-width=".45" d="M2.4.9l.1-.1H3v.7h-.7l.1-.6z"/><path fill="#fff" stroke="#050505" stroke-miterlimit="14" stroke-width=".29" d="M10.5 14.7l-4.8-3.1-.2-6.2 4.8 2.7.2 6.6zm.3 0l4.6-3.4.1-6.1-5 3 .3 6.5z"/><path fill="#fff" stroke="#050505" stroke-miterlimit="14" stroke-width=".23" d="M10.6 2.5L15.4 5l-5 3-4.8-2.8 5-2.7z"/></svg>