<svg xmlns="http://www.w3.org/2000/svg" id="Layer_1" width="19.7" height="19.7" viewBox="0 0 19.7 19.7"><circle cx="9.8" cy="9.8" r="9.3" fill="#4da500" stroke="#8e0909" stroke-miterlimit="10"/><circle cx="9.8" cy="9.8" r="7.7" fill="#fff"/><path fill="#a5d357" d="M5.5 16.2s1-1.6 2-1.7-1.6.3-1.1-1.1a.5.5 0 0 1-.1-.7c-.1-.1-.2-.3 0-.4s-.1-.4-.4-.5-.5 0-.4-.3l.6-.6s.3-.4.2-.6a2.4 2.4 0 0 1 .1-1.4s-.9 0-.7-.5-.4-1 .4-1.2a.9.9 0 0 1 1.1-.9c.4-.3.9-1.1 1.9-.5s1.8-.2 2 .2 1.7.6 1 1.6 1.3.7.8 1.2.5.6-.1 1a.6.6 0 0 1 0 1c0 .2.1 1.1-.5 1s-.3.8-.7.6.2.7-.4.9-.2.9 0 1.1 2.9.3 3.3 1.6a7.7 7.7 0 0 1-9 .2z"/></svg>